<?xml version="1.0" standalone="no"?>
<!DOCTYPE svg PUBLIC "-//W3C//DTD SVG 20010904//EN"
 "http://www.w3.org/TR/2001/REC-SVG-20010904/DTD/svg10.dtd">
<svg version="1.0" xmlns="http://www.w3.org/2000/svg"
 width="667.000000pt" height="667.000000pt" viewBox="0 0 667.000000 667.000000"
 preserveAspectRatio="xMidYMid meet">
<metadata>
Created by potrace 1.14, written by Peter Selinger 2001-2017
</metadata>
<g transform="translate(0.000000,667.000000) scale(0.100000,-0.100000)"
fill="#000000" stroke="none">
<path d="M3030 5559 c-154 -22 -273 -51 -405 -96 -55 -19 -106 -35 -112 -35
-7 -1 -13 -5 -13 -9 0 -4 -12 -10 -27 -14 -26 -6 -228 -102 -248 -118 -5 -4
-36 -23 -67 -41 -312 -184 -649 -553 -808 -883 -11 -23 -20 -47 -20 -52 0 -6
-4 -11 -8 -11 -4 0 -14 -17 -21 -37 -7 -21 -20 -52 -27 -68 -8 -17 -31 -81
-52 -142 l-38 -111 -67 0 c-37 -1 -97 -1 -134 -1 l-68 -1 2 -427 c1 -236 2
-437 2 -448 1 -19 8 -20 106 -20 116 1 107 7 119 -70 5 -33 33 -165 40 -186 2
-8 14 -48 27 -89 12 -41 25 -79 29 -85 4 -5 10 -22 14 -38 4 -15 18 -52 31
-82 14 -29 25 -56 25 -58 0 -2 18 -36 39 -76 22 -39 37 -71 34 -71 -3 0 1 -7
8 -16 12 -14 9 -15 -26 -9 -49 9 -73 12 -150 21 -33 4 -71 8 -85 10 -93 11
-266 18 -452 18 -209 0 -218 -1 -247 -22 -17 -12 -32 -22 -35 -22 -3 0 -65
-36 -140 -80 -74 -44 -140 -80 -145 -80 -6 0 -11 -4 -11 -9 0 -5 -8 -11 -17
-15 -39 -12 -80 -43 -78 -56 2 -8 12 -46 25 -85 12 -38 23 -77 25 -85 2 -8 16
-53 31 -100 15 -47 29 -90 30 -97 1 -6 7 -28 14 -47 9 -27 8 -40 -1 -58 -7
-13 -12 -25 -11 -28 3 -12 -11 -57 -24 -78 -8 -12 -12 -22 -9 -22 2 0 0 -12
-5 -26 -7 -18 -7 -39 1 -67 14 -50 17 -67 18 -87 2 -33 15 -40 52 -29 35 10
184 46 229 54 14 3 36 8 50 12 14 3 32 7 40 8 66 10 107 17 120 20 16 5 52 11
115 20 22 4 54 9 70 11 17 3 44 7 60 9 17 1 62 6 100 10 39 4 84 9 100 11 232
24 721 23 905 -1 19 -3 55 -7 80 -10 25 -3 86 -13 135 -21 50 -9 101 -17 115
-19 44 -7 285 -73 346 -95 33 -12 68 -24 79 -27 11 -3 40 -14 65 -25 25 -12
51 -21 58 -21 6 0 12 -4 12 -8 0 -4 13 -12 29 -17 27 -10 45 -44 55 -102 1 -3
12 -26 24 -52 64 -129 220 -203 420 -197 42 1 95 6 117 12 22 5 45 10 50 11
98 20 234 179 237 275 1 17 6 35 12 40 21 17 338 124 398 134 13 2 30 6 38 10
13 5 51 15 85 22 12 3 208 43 245 50 14 3 47 7 75 10 27 3 57 7 65 10 25 7
168 22 290 30 30 2 55 4 55 5 0 1 83 2 185 2 169 1 353 -6 455 -17 22 -2 63
-7 90 -10 28 -3 68 -8 90 -11 22 -3 51 -7 65 -9 32 -4 192 -33 250 -45 25 -6
56 -13 70 -16 14 -2 33 -7 42 -10 9 -3 25 -6 35 -8 23 -5 183 -52 204 -61 18
-7 24 6 59 116 19 62 20 67 4 104 -39 95 -55 162 -43 192 6 15 12 35 14 44 4
19 57 192 91 299 29 89 29 96 7 103 -24 8 -77 40 -81 50 -2 4 -8 7 -14 7 -6 0
-62 32 -125 70 -63 39 -116 70 -119 70 -2 0 -23 12 -47 27 l-43 28 -225 -1
c-215 -1 -347 -7 -447 -19 -26 -3 -63 -8 -82 -10 -19 -3 -55 -7 -80 -10 -25
-3 -60 -7 -77 -10 -38 -4 -40 2 -15 36 9 13 35 62 56 109 21 47 42 93 47 102
9 19 49 128 52 143 2 6 5 15 8 20 4 6 10 24 14 40 4 17 9 39 12 50 3 11 9 43
13 70 4 28 10 60 13 71 12 47 22 118 33 217 10 93 19 92 17 -1 l-2 -77 97 1
c53 1 99 2 102 3 3 1 5 115 5 254 -1 269 -6 303 -52 364 -28 37 -93 71 -141
75 -19 1 -34 9 -36 18 -3 8 -16 65 -31 125 -31 134 -63 227 -123 365 -49 111
-130 263 -144 268 -4 2 -8 8 -8 14 0 6 -11 26 -25 44 -14 18 -25 37 -25 42 0
6 -3 12 -8 14 -4 2 -21 21 -37 44 -17 23 -64 78 -105 124 -229 254 -437 416
-700 545 -107 53 -283 124 -305 125 -3 0 -18 6 -33 14 -15 8 -44 17 -62 19
-19 3 -35 6 -35 7 0 2 3 1 -135 28 -160 31 -190 34 -400 37 -146 2 -226 -2
-320 -16z m-1887 -1801 c5 -16 -3 -48 -12 -48 -4 0 -8 14 -9 30 -2 30 12 42
21 18z m-3 -68 c0 -5 -4 -10 -10 -10 -5 0 -10 5 -10 10 0 6 5 10 10 10 6 0 10
-4 10 -10z"/>
</g>
</svg>
